<svg viewBox="0 0 120 120" fill="none" xmlns="http://www.w3.org/2000/svg">
	<g clip-path="url(#clip0_3_25)">
		<rect width="120" height="120" fill="#6FBA50" />
		<path d="M32.1818 49.1818H33.8182V51.8182H32.1818V49.1818ZM18.8182 64.5455L28.5455 44.1818H37.4545L47.1818 64.5455H38.5455L32.8182 50.9091H33.1818L27.4545 64.5455H18.8182ZM50.25 90.7273C48.4924 90.7273 46.9848 90.1136 45.7273 88.8864C44.4848 87.6439 43.8712 86.1364 43.8864 84.3636C43.8712 82.6364 44.4848 81.1591 45.7273 79.9318C46.9848 78.7045 48.4924 78.0909 50.25 78.0909C51.9167 78.0909 53.3864 78.7045 54.6591 79.9318C55.947 81.1591 56.5985 82.6364 56.6136 84.3636C56.5985 85.5455 56.2879 86.6212 55.6818 87.5909C55.0909 88.5455 54.3182 89.3106 53.3636 89.8864C52.4091 90.447 51.3712 90.7273 50.25 90.7273ZM70.25 90.7273C68.4924 90.7273 66.9848 90.1136 65.7273 88.8864C64.4848 87.6439 63.8712 86.1364 63.8864 84.3636C63.8712 82.6364 64.4848 81.1591 65.7273 79.9318C66.9848 78.7045 68.4924 78.0909 70.25 78.0909C71.9167 78.0909 73.3864 78.7045 74.6591 79.9318C75.947 81.1591 76.5985 82.6364 76.6136 84.3636C76.5985 85.5455 76.2879 86.6212 75.6818 87.5909C75.0909 88.5455 74.3182 89.3106 73.3636 89.8864C72.4091 90.447 71.3712 90.7273 70.25 90.7273ZM95.4318 49.1818H97.0682V51.8182H95.4318V49.1818ZM82.0682 64.5455L91.7955 44.1818H100.705L110.432 64.5455H101.795L96.0682 50.9091H96.4318L90.7045 64.5455H82.0682Z" fill="white" />
	</g>
	<defs>
		<clipPath id="clip0_3_25">
			<rect width="120" height="120" fill="white" />
		</clipPath>
	</defs>
</svg>