<svg width="108" height="108" viewBox="0 0 230 230" fill="none" xmlns="http://www.w3.org/2000/svg">
	<rect width="230" height="230" fill="white" />
	<g clip-path="url(#clip0_3_42)">
		<rect width="120" height="120" transform="translate(55 55)" fill="white" />
		<path d="M87.1818 104.182H88.8182V106.818H87.1818V104.182ZM73.8182 119.545L83.5455 99.1818H92.4545L102.182 119.545H93.5455L87.8182 105.909H88.1818L82.4545 119.545H73.8182ZM105.25 145.727C103.492 145.727 101.985 145.114 100.727 143.886C99.4848 142.644 98.8712 141.136 98.8864 139.364C98.8712 137.636 99.4848 136.159 100.727 134.932C101.985 133.705 103.492 133.091 105.25 133.091C106.917 133.091 108.386 133.705 109.659 134.932C110.947 136.159 111.598 137.636 111.614 139.364C111.598 140.545 111.288 141.621 110.682 142.591C110.091 143.545 109.318 144.311 108.364 144.886C107.409 145.447 106.371 145.727 105.25 145.727ZM125.25 145.727C123.492 145.727 121.985 145.114 120.727 143.886C119.485 142.644 118.871 141.136 118.886 139.364C118.871 137.636 119.485 136.159 120.727 134.932C121.985 133.705 123.492 133.091 125.25 133.091C126.917 133.091 128.386 133.705 129.659 134.932C130.947 136.159 131.598 137.636 131.614 139.364C131.598 140.545 131.288 141.621 130.682 142.591C130.091 143.545 129.318 144.311 128.364 144.886C127.409 145.447 126.371 145.727 125.25 145.727ZM150.432 104.182H152.068V106.818H150.432V104.182ZM137.068 119.545L146.795 99.1818H155.705L165.432 119.545H156.795L151.068 105.909H151.432L145.705 119.545H137.068Z" fill="#6FBA50" />
	</g>
	<defs>
		<clipPath id="clip0_3_42">
			<rect width="120" height="120" fill="white" transform="translate(55 55)" />
		</clipPath>
	</defs>
</svg>